<svg width="150" height="150" viewBox="0 0 150 150" fill="none" xmlns="http://www.w3.org/2000/svg">
<circle cx="75" cy="75" r="75" fill="#2EBC15"/>
<path d="M64.6136 92V88.9318L76.1364 76.3182C77.4886 74.8409 78.6023 73.5568 79.4773 72.4659C80.3523 71.3636 81 70.3295 81.4205 69.3636C81.8523 68.3864 82.0682 67.3636 82.0682 66.2955C82.0682 65.0682 81.7727 64.0057 81.1818 63.108C80.6023 62.2102 79.8068 61.517 78.7955 61.0284C77.7841 60.5398 76.6477 60.2955 75.3864 60.2955C74.0455 60.2955 72.875 60.5739 71.875 61.1307C70.8864 61.6761 70.1193 62.4432 69.5739 63.4318C69.0398 64.4205 68.7727 65.5795 68.7727 66.9091H64.75C64.75 64.8636 65.2216 63.0682 66.1648 61.5227C67.108 59.9773 68.392 58.7727 70.017 57.9091C71.6534 57.0455 73.4886 56.6136 75.5227 56.6136C77.5682 56.6136 79.3807 57.0455 80.9602 57.9091C82.5398 58.7727 83.7784 59.9375 84.6761 61.4034C85.5739 62.8693 86.0227 64.5 86.0227 66.2955C86.0227 67.5795 85.7898 68.8352 85.3239 70.0625C84.8693 71.2784 84.0739 72.6364 82.9375 74.1364C81.8125 75.625 80.25 77.4432 78.25 79.5909L70.4091 87.9773V88.25H86.6364V92H64.6136Z" fill="white"/>
</svg>
