<svg width="150" height="150" viewBox="0 0 150 150" fill="none" xmlns="http://www.w3.org/2000/svg">
<circle cx="75" cy="75" r="75" fill="#2EBC15"/>
<path d="M76.4091 92.4773C74.1591 92.4773 72.1534 92.0909 70.392 91.3182C68.642 90.5455 67.25 89.4716 66.2159 88.0966C65.1932 86.7102 64.6364 85.1023 64.5455 83.2727H68.8409C68.9318 84.3977 69.3182 85.3693 70 86.1875C70.6818 86.9943 71.5739 87.6193 72.6761 88.0625C73.7784 88.5057 75 88.7273 76.3409 88.7273C77.8409 88.7273 79.1705 88.4659 80.3295 87.9432C81.4886 87.4205 82.3977 86.6932 83.0568 85.7614C83.7159 84.8295 84.0455 83.75 84.0455 82.5227C84.0455 81.2386 83.7273 80.108 83.0909 79.1307C82.4545 78.142 81.5227 77.3693 80.2955 76.8125C79.0682 76.2557 77.5682 75.9773 75.7955 75.9773H73V72.2273H75.7955C77.1818 72.2273 78.3977 71.9773 79.4432 71.4773C80.5 70.9773 81.3239 70.2727 81.9148 69.3636C82.517 68.4545 82.8182 67.3864 82.8182 66.1591C82.8182 64.9773 82.5568 63.9489 82.0341 63.0739C81.5114 62.1989 80.7727 61.517 79.8182 61.0284C78.875 60.5398 77.7614 60.2955 76.4773 60.2955C75.2727 60.2955 74.1364 60.517 73.0682 60.9602C72.0114 61.392 71.1477 62.0227 70.4773 62.8523C69.8068 63.6705 69.4432 64.6591 69.3864 65.8182H65.2955C65.3636 63.9886 65.9148 62.3864 66.9489 61.0114C67.983 59.625 69.3352 58.5455 71.0057 57.7727C72.6875 57 74.5341 56.6136 76.5455 56.6136C78.7045 56.6136 80.5568 57.0511 82.1023 57.9261C83.6477 58.7898 84.8352 59.9318 85.6648 61.3523C86.4943 62.7727 86.9091 64.3068 86.9091 65.9545C86.9091 67.9205 86.392 69.5966 85.358 70.983C84.3352 72.3693 82.9432 73.3295 81.1818 73.8636V74.1364C83.3864 74.5 85.108 75.4375 86.3466 76.9489C87.5852 78.4489 88.2045 80.3068 88.2045 82.5227C88.2045 84.4205 87.6875 86.125 86.6534 87.6364C85.6307 89.1364 84.233 90.3182 82.4602 91.1818C80.6875 92.0455 78.6705 92.4773 76.4091 92.4773Z" fill="white"/>
</svg>
