<?xml version="1.0" encoding="UTF-8"?>
<svg id="Camada_2" data-name="Camada 2" xmlns="http://www.w3.org/2000/svg" viewBox="0 0 596 596">
  <defs>
    <style>
      .cls-1, .cls-2 {
        stroke-width: 0px;
      }

      .cls-2 {
        fill: #7ac26a;
      }
      .cls-1 {
        fill: rgba(255, 255, 255, 0.25);}
    </style>
  </defs>
  <g id="Camada_1-2" data-name="Camada 1">
    <g>
      <path class="cls-2" d="M0,596V0h596v596H0ZM337.37,341.8c5.36-1,10.9-1.46,16.06-3.1,15.07-4.77,25.02-14.88,28.7-30.36,3.69-15.49.2-29.46-11.19-40.81-12.09-12.05-27.16-14.48-43.41-12.14-22.21,3.2-38.63,24.87-35.75,47.13,3.04,23.5,20.84,38.65,45.59,39.28ZM282.27,269.34c-10.43-14.48-33.96-18.11-51.06-11.94-19.74,7.13-29.89,24.27-28.03,46.05,1.55,18.2,15.51,32.8,35.33,36.95,16.93,3.55,37.55-3.18,43.47-14.42-3.57-3.25-7.2-6.56-10.75-9.79-14.78,11.37-30.6,12.07-40.61,2.12-9.67-9.6-11.16-26.36-3.3-37.11,4.02-5.5,9.45-8.95,16.07-10.13,10.59-1.89,20.08.6,27.73,8.71,3.93-3.68,7.44-6.96,11.16-10.44ZM128.92,307.86c-.53-3.95-.79-6.76-1.31-9.51-2.79-14.97-9.85-26.84-24.74-32.47-18.51-7-36.87-4.08-56.02,1.3,10.31,9.35,15.62,21.03,21.59,32.34,2.29,4.34,5.42,8.4,8.84,11.94,11.85,12.24,33.14,11.52,45.26,3.9-7.35-24.7-24.03-39.27-49.09-44.8,17.81-.21,44.01,5.7,55.46,37.3ZM159.76,300.59c2.3-.15,4.08-.35,5.85-.38,7.82-.15,15.65-.41,23.47-.31,3.81.05,4.81-1.46,4.7-5.06-.39-13.57-12.87-22.87-27.91-20.59-16.47,2.49-24.74,22.59-14.79,35.95,6.65,8.93,20.47,12.43,31.64,8,8.6-3.41,8.88-5.58,1.48-11.48-11.31,6.19-20.57,4.14-24.45-6.13ZM548.56,294.94c-2.33-.59-4.1-.73-5.58-1.47-4.01-2.02-7.87-1.8-11.16,1.05-3.29,2.85-4.33,6.65-2.56,10.85,1.69,4.02,4.93,5.9,9.14,5.43,2.67-.3,5.24-1.44,8.1-2.27.6,4.24-.05,8.1-4.82,8.77-3.6.51-7.42-.48-12.14-.89,4.68,3.26,8.78,3.99,13.34,2.44,3.89-1.32,5.43-4.43,5.6-8.06.28-5.77.07-11.57.07-15.85ZM484.33,295.02c-10.21-3.44-13.77-3.08-16.72,1.76-2.4,3.93-2.24,8.01.59,11.66,3.44,4.42,7.61,4.5,15.5.66.52.54,1.02,1.07,1.47,1.54v-25.17c-.28,0-.56.02-.84.02v9.52ZM520.42,310.55c.6-.02,1.2-.04,1.8-.06-.21-4.49.21-9.15-.92-13.4-.53-2-3.85-4.09-6.21-4.55-2.42-.47-5.23,1.01-7.81,1.62-.47-.52-1.12-1.24-1.97-2.19-1.76,6.62-1.25,17.33,1.49,20.41,0-4.34-.13-7.91.03-11.46.19-4.15,3.53-7.23,7.56-6.96,4.24.28,6.14,2.78,6.04,6.98-.08,3.2-.02,6.4-.02,9.61ZM442.74,291.5v20.59c.86-.67,1.32-.85,1.33-1.06.2-3.31.26-6.62.52-9.92.34-4.47,3.29-7.27,7.37-7.17,3.97.1,6.28,2.68,6.4,7.3.08,3.08.01,6.16.01,9.24.44-.03.89-.06,1.33-.09,0-1.48,0-2.96,0-4.44,0-2.16.1-4.34-.07-6.49-.43-5.6-5.38-8.69-10.75-6.7-1.34.49-2.55,1.32-3.79,1.98-.71-.97-1.26-1.72-2.36-3.23ZM433.4,293.53c-.37.01-.73.03-1.1.04,0,1.48,0,2.95,0,4.43,0,1.49.06,2.99-.05,4.48-.38,5.08-2.92,7.76-7.25,7.76-4.63,0-6.49-2.12-6.69-7.9-.12-3.29-.02-6.58-.02-9.87-.69.01-1.39.02-2.08.03,0,3.35-.03,6.7,0,10.05.1,8.53,5.68,11.76,13.25,7.82,1.04-.54,2.48-.29,3.93-.43v-16.42ZM406.09,291.98c-.88-4.8,1.04-6.87,5.63-6.91-4.1-1.28-6.85-.82-7.72,3.91-.29,1.61-1.91,2.98-2.84,4.33,6.65,4.32.42,12.39,4.71,17.86v-16.68c2.03-.48,3.5-.83,4.98-1.17l-.12-.69c-1.43-.2-2.85-.39-4.63-.64ZM495.58,292.9c-.29,0-.59-.02-.88-.02v18.26c.29,0,.59-.02.88-.03v-18.21Z"/>
      <path class="cls-1" d="M337.37,341.8c-24.74-.63-42.55-15.77-45.59-39.28-2.88-22.26,13.55-43.94,35.75-47.13,16.25-2.34,31.32.09,43.41,12.14,11.39,11.35,14.87,25.32,11.19,40.81-3.68,15.48-13.63,25.59-28.7,30.36-5.16,1.63-10.69,2.1-16.06,3.1ZM364.63,298.02c.03-16.13-10.84-27.37-26.55-27.43-15.95-.07-27.27,11.37-27.21,27.49.06,15.77,11.4,27.21,27.01,27.24,15.69.03,26.72-11.22,26.75-27.29Z"/>
      <path class="cls-1" d="M282.27,269.34c-3.72,3.48-7.23,6.76-11.16,10.44-7.65-8.11-17.13-10.6-27.73-8.71-6.62,1.18-12.05,4.64-16.07,10.13-7.86,10.75-6.37,27.51,3.3,37.11,10.02,9.95,25.84,9.24,40.61-2.12,3.55,3.24,7.18,6.54,10.75,9.79-5.92,11.24-26.54,17.97-43.47,14.42-19.82-4.15-33.77-18.75-35.33-36.95-1.86-21.79,8.29-38.93,28.03-46.05,17.1-6.17,40.63-2.55,51.06,11.94Z"/>
      <path class="cls-1" d="M128.92,307.86c-11.45-31.6-37.65-37.51-55.46-37.3,25.06,5.52,41.74,20.09,49.09,44.8-12.12,7.62-33.41,8.34-45.26-3.9-3.42-3.54-6.55-7.6-8.84-11.94-5.97-11.31-11.28-22.99-21.59-32.34,19.15-5.39,37.5-8.3,56.02-1.3,14.89,5.63,21.95,17.51,24.74,32.47.51,2.76.77,5.56,1.31,9.51Z"/>
      <path class="cls-1" d="M159.76,300.59c3.88,10.28,13.14,12.32,24.45,6.13,7.4,5.9,7.12,8.07-1.48,11.48-11.17,4.43-24.99.94-31.64-8-9.94-13.36-1.67-33.45,14.79-35.95,15.04-2.28,27.51,7.02,27.91,20.59.1,3.6-.89,5.11-4.7,5.06-7.82-.1-15.65.16-23.47.31-1.78.03-3.55.23-5.85.38ZM181.94,293.01c-.5-6.21-4.74-9.94-10.94-9.88-6.28.05-10.52,3.86-10.77,9.88h21.71Z"/>
      <path class="cls-1" d="M548.56,294.94c0,4.29.21,10.08-.07,15.85-.18,3.63-1.71,6.74-5.6,8.06-4.56,1.55-8.65.82-13.34-2.44,4.72.41,8.53,1.4,12.14.89,4.76-.67,5.42-4.53,4.82-8.77-2.87.83-5.44,1.97-8.1,2.27-4.21.48-7.45-1.4-9.14-5.43-1.77-4.2-.73-8.01,2.56-10.85,3.3-2.85,7.15-3.06,11.16-1.05,1.48.74,3.25.88,5.58,1.47ZM539.04,309.39c4.47-.06,7.97-3.51,7.92-7.8-.05-4.11-3.9-7.76-8.15-7.72-4.48.04-7.99,3.41-8.01,7.7-.02,4.74,3.31,7.9,8.25,7.83Z"/>
      <path class="cls-1" d="M484.33,295.02v-9.52c.28,0,.56-.02.84-.02v25.17c-.46-.48-.96-1-1.47-1.54-7.89,3.83-12.07,3.76-15.5-.66-2.83-3.65-2.99-7.73-.59-11.66,2.95-4.84,6.51-5.2,16.72-1.76ZM484.24,302.13c0-4.44-3.38-8.09-7.66-8.24-4.49-.17-8.04,3.52-8,8.32.04,4.89,2.92,7.96,7.57,8.06,4.85.1,8.09-3.15,8.09-8.13Z"/>
      <path class="cls-1" d="M520.42,310.55c0-3.2-.06-6.41.02-9.61.1-4.21-1.8-6.7-6.04-6.98-4.03-.27-7.37,2.81-7.56,6.96-.16,3.55-.03,7.12-.03,11.46-2.74-3.09-3.25-13.8-1.49-20.41.85.95,1.5,1.67,1.97,2.19,2.58-.61,5.39-2.09,7.81-1.62,2.36.46,5.69,2.55,6.21,4.55,1.12,4.25.7,8.91.92,13.4-.6.02-1.2.04-1.8.06Z"/>
      <path class="cls-1" d="M442.74,291.5c1.1,1.51,1.65,2.26,2.36,3.23,1.24-.66,2.45-1.48,3.79-1.98,5.37-1.99,10.32,1.1,10.75,6.7.16,2.15.06,4.33.07,6.49,0,1.48,0,2.96,0,4.44-.44.03-.89.06-1.33.09,0-3.08.06-6.16-.01-9.24-.12-4.62-2.42-7.2-6.4-7.3-4.08-.1-7.03,2.7-7.37,7.17-.25,3.3-.32,6.62-.52,9.92-.01.21-.47.39-1.33,1.06v-20.59Z"/>
      <path class="cls-1" d="M433.4,293.53v16.42c-1.45.14-2.89-.11-3.93.43-7.57,3.94-13.16.7-13.25-7.82-.04-3.35,0-6.7,0-10.05.69-.01,1.39-.02,2.08-.03,0,3.29-.1,6.58.02,9.87.2,5.78,2.06,7.9,6.69,7.9,4.33,0,6.87-2.69,7.25-7.76.11-1.49.04-2.99.05-4.48,0-1.47,0-2.95,0-4.43.37-.01.73-.03,1.1-.04Z"/>
      <path class="cls-1" d="M406.09,291.98c1.78.25,3.21.44,4.63.64l.12.69c-1.47.35-2.95.7-4.98,1.17v16.68c-4.29-5.46,1.95-13.54-4.71-17.86.92-1.35,2.54-2.72,2.84-4.33.87-4.73,3.62-5.19,7.72-3.91-4.58.04-6.51,2.11-5.63,6.91Z"/>
      <path class="cls-1" d="M495.58,292.9v18.21c-.29,0-.59.02-.88.03v-18.26c.29,0,.59.02.88.02Z"/>
      <path class="cls-2" d="M364.63,298.02c-.03,16.07-11.06,27.32-26.75,27.29-15.61-.03-26.94-11.47-27.01-27.24-.06-16.11,11.26-27.56,27.21-27.49,15.71.07,26.58,11.3,26.55,27.43Z"/>
      <path class="cls-2" d="M181.94,293.01h-21.71c.25-6.03,4.48-9.83,10.77-9.88,6.2-.05,10.45,3.67,10.94,9.88Z"/>
      <path class="cls-2" d="M539.04,309.39c-4.94.07-8.27-3.09-8.25-7.83.02-4.29,3.53-7.66,8.01-7.7,4.25-.04,8.1,3.61,8.15,7.72.05,4.3-3.44,7.74-7.92,7.8Z"/>
      <path class="cls-2" d="M484.24,302.13c0,4.98-3.24,8.22-8.09,8.13-4.65-.09-7.53-3.16-7.57-8.06-.04-4.79,3.51-8.48,8-8.32,4.28.16,7.67,3.8,7.66,8.24Z"/>
    </g>
  </g>
</svg>