<?xml version="1.0" encoding="UTF-8"?>
<svg id="Camada_2" data-name="Camada 2" xmlns="http://www.w3.org/2000/svg" viewBox="0 0 1718.38 249.29">
  <defs>
    <style>
      .cls-1 {
        fill: #242a32;
      }
    </style>
  </defs>
  <g id="Camada_1-2" data-name="Camada 1">
    <g id="_1" data-name="1">
      <path class="cls-1" d="M0,228.57l20.71,20.72,2.18-2.22,53.41-53.41c1.02,.79,2.08,1.58,3.16,2.35,.73,.52,1.45,1.04,2.18,1.54,.69,.47,1.38,.94,2.08,1.4l.02,.02,.22,.14c.72,.47,1.44,.94,2.18,1.39,.07,.05,.23,.15,.4,.25,.64,.41,1.37,.85,2.1,1.28,.59,.36,1.21,.72,1.83,1.07,.42,.25,.89,.52,1.36,.77,.21,.13,.5,.28,.79,.44,.37,.21,.78,.43,1.2,.65,.69,.37,1.38,.73,2.08,1.09,.68,.35,1.38,.7,2.09,1.05l.73,.36c.65,.31,1.3,.62,1.96,.92l.37,.17c1.55,.71,3.13,1.4,4.84,2.1l.47,.19c.52,.21,1.04,.42,1.56,.62l.35,.38h.64c.62,.24,1.24,.47,1.86,.69,.5,.19,1.04,.38,1.58,.56,.37,.13,.74,.26,1.11,.38,1.73,.59,3.58,1.17,5.47,1.71,.35,.11,.75,.22,1.14,.33,.05,.02,.14,.04,.24,.07,.58,.16,1.17,.32,1.76,.47l.29,.08c.63,.16,1.26,.32,1.9,.48l.47,.11c.83,.19,1.59,.37,2.35,.53,.8,.17,1.61,.34,2.43,.51,.66,.13,1.31,.26,1.98,.38,.23,.04,.5,.09,.78,.14,.12,.03,.24,.05,.34,.06,.59,.11,1.19,.21,1.79,.3,.19,.04,.46,.08,.72,.12,.6,.09,1.2,.18,1.82,.27l.14,.02c.7,.09,1.39,.19,2.09,.27,.11,.02,.21,.03,.32,.04,.77,.09,1.58,.18,2.39,.26,.85,.08,1.69,.16,2.52,.22h.11c.54,.05,1.08,.09,1.61,.13,.11,0,.22,.02,.34,.02,.34,.03,.69,.05,1.03,.06,.04,0,.09,0,.13,0h.08s.04,0,.04,0l1.57,.07c.15,0,.28,0,.42,.01,.66,.02,1.29,.04,1.93,.06l.85,.02c.65,0,1.3,.01,1.95,.01h91.98S246.42,0,246.42,0H26.2s0,91.98,0,91.98c0,.83,0,1.65,.03,2.48,0,.13,0,.33,0,.52,.01,.7,.03,1.48,.07,2.25v.11c.03,.76,.07,1.53,.12,2.29,.02,.41,.05,.79,.07,1.16,.11,1.67,.26,3.32,.43,4.9,.06,.61,.14,1.23,.22,1.85,.02,.23,.05,.45,.08,.68,.07,.57,.15,1.23,.25,1.89,.15,1.06,.32,2.12,.49,3.17,.1,.63,.22,1.28,.34,1.93l.15,.83c.12,.62,.24,1.22,.36,1.83,.12,.58,.24,1.18,.38,1.78,.15,.66,.3,1.32,.45,1.99,.13,.58,.28,1.16,.43,1.74,.14,.56,.29,1.14,.45,1.73,.09,.33,.18,.69,.28,1.04,.16,.59,.32,1.16,.49,1.72,.02,.06,.04,.13,.06,.2,.12,.41,.24,.83,.37,1.24,.23,.78,.49,1.59,.75,2.4,.34,1.03,.69,2.06,1.05,3.07,.15,.44,.32,.9,.49,1.37,.16,.43,.32,.9,.51,1.36,.16,.43,.33,.88,.51,1.33,.52,1.34,1.1,2.73,1.7,4.11,.17,.4,.35,.82,.54,1.23,.23,.53,.49,1.11,.76,1.68,.27,.6,.57,1.24,.89,1.89l.2,.42c.24,.52,.52,1.06,.8,1.61l.45,.87c.05,.1,.09,.19,.14,.28,.28,.55,.56,1.09,.85,1.61,.78,1.47,1.63,2.98,2.5,4.46l.24,.4c.12,.21,.24,.41,.37,.61,.09,.15,.21,.36,.34,.57,.33,.54,.68,1.11,1.02,1.66,.36,.57,.72,1.13,1.08,1.68,.36,.56,.72,1.11,1.1,1.65,.43,.65,.89,1.31,1.36,1.98,.12,.17,.28,.4,.44,.63l.15,.21c.34,.49,.71,1,1.08,1.49,.15,.22,.34,.46,.52,.71,.31,.41,.62,.82,.93,1.23,.06,.08,.15,.2,.24,.32l.11,.14c.8,1.03,1.6,2.04,2.4,3.01L0,228.57ZM140.5,88.07l-68.77,68.77c-14.47-18.43-22.4-41.35-22.4-64.86v-3.91h91.17ZM205.44,23.13l-41.8,41.8H49.33V23.13H205.44Zm17.85,23.55V197.09h-41.8V88.48s41.8-41.8,41.8-41.8Zm-64.94,64.94v85.48h-3.91c-22.03,0-43.8-7.07-61.61-19.96l65.52-65.51Z"/>
      <g>
        <g>
          <path class="cls-1" d="M357.75,141.76v-62.37h57.83v14.52h-40.9v33.32h42.24v14.52h-59.17Zm9.27-24.77v-13.72h45v13.72h-45Z"/>
          <path class="cls-1" d="M524.2,142.65c-5.58,0-10.78-.77-15.59-2.32s-9.03-3.74-12.65-6.59c-3.62-2.85-6.45-6.27-8.46-10.25-2.02-3.98-3.03-8.41-3.03-13.28s1.02-9.21,3.07-13.19c2.05-3.98,4.86-7.4,8.42-10.25,3.56-2.85,7.74-5.06,12.52-6.64,4.78-1.57,9.94-2.36,15.46-2.36,3.98,0,7.78,.42,11.41,1.25,3.62,.83,7.01,1.95,10.16,3.34,3.15,1.4,5.85,2.98,8.11,4.77l-9.89,13.72c-1.43-1.19-3.12-2.33-5.08-3.43-1.96-1.1-4.22-1.99-6.77-2.67-2.55-.68-5.52-1.02-8.91-1.02-2.49,0-4.93,.34-7.31,1.02-2.38,.68-4.56,1.72-6.55,3.12-1.99,1.4-3.56,3.13-4.72,5.21-1.16,2.08-1.74,4.51-1.74,7.31s.62,5.23,1.87,7.31c1.25,2.08,2.95,3.8,5.12,5.17,2.17,1.37,4.59,2.39,7.26,3.07,2.67,.68,5.44,1.02,8.29,1.02,3.39,0,6.36-.46,8.91-1.38,2.55-.92,4.78-2,6.68-3.25,1.9-1.25,3.59-2.38,5.08-3.39l8.2,13.45c-1.78,1.43-4.2,2.94-7.26,4.54-3.06,1.6-6.52,2.96-10.38,4.05-3.86,1.1-7.93,1.65-12.21,1.65Z"/>
          <path class="cls-1" d="M658.66,142.65c-5.94,0-11.38-.82-16.31-2.45-4.93-1.63-9.18-3.92-12.74-6.86-3.56-2.94-6.33-6.38-8.29-10.34-1.96-3.95-2.94-8.21-2.94-12.79s.99-8.91,2.98-12.83c1.99-3.92,4.77-7.35,8.33-10.29,3.56-2.94,7.8-5.23,12.7-6.86,4.9-1.63,10.32-2.45,16.26-2.45s11.27,.82,16.17,2.45c4.9,1.63,9.15,3.92,12.74,6.86,3.59,2.94,6.37,6.37,8.33,10.29,1.96,3.92,2.94,8.17,2.94,12.74s-.98,8.93-2.94,12.88c-1.96,3.95-4.74,7.4-8.33,10.34-3.59,2.94-7.84,5.23-12.74,6.86-4.9,1.63-10.29,2.45-16.17,2.45Zm0-16.4c3.21,0,6.18-.4,8.91-1.2,2.73-.8,5.09-1.93,7.08-3.39,1.99-1.46,3.52-3.16,4.59-5.12,1.07-1.96,1.6-4.07,1.6-6.33s-.53-4.37-1.6-6.33-2.6-3.67-4.59-5.12c-1.99-1.46-4.35-2.58-7.08-3.39-2.73-.8-5.7-1.2-8.91-1.2s-6.27,.4-9,1.2c-2.73,.8-5.09,1.93-7.08,3.39-1.99,1.46-3.52,3.16-4.59,5.12-1.07,1.96-1.6,4.07-1.6,6.33s.53,4.37,1.6,6.33c1.07,1.96,2.6,3.67,4.59,5.12,1.99,1.46,4.35,2.58,7.08,3.39,2.73,.8,5.73,1.2,9,1.2Z"/>
        </g>
        <g>
          <path class="cls-1" d="M773.33,143.36v-62.37h6.95v62.37h-6.95Zm2.67-26.91v-6.86h43.04v6.86h-43.04Zm.98-28.69v-6.77h46.25v6.77h-46.25Z"/>
          <path class="cls-1" d="M926.94,143.98c-6.18,0-11.55-1.32-16.13-3.96-4.58-2.64-8.14-6.25-10.69-10.83-2.55-4.57-3.83-9.8-3.83-15.68v-32.52h6.95v32.26c0,4.57,1.02,8.67,3.07,12.3,2.05,3.62,4.87,6.45,8.46,8.46,3.59,2.02,7.65,3.03,12.16,3.03,4.75,0,8.94-1.01,12.56-3.03,3.62-2.02,6.46-4.84,8.51-8.46,2.05-3.62,3.07-7.72,3.07-12.3v-32.26h6.68v32.61c0,5.82-1.28,11.02-3.83,15.59-2.55,4.57-6.13,8.18-10.74,10.83-4.6,2.64-10.02,3.96-16.26,3.96Z"/>
          <path class="cls-1" d="M1035.11,143.36v-62.37h7.13l53.64,54.44-.62,1.6c-.24-1.37-.4-3.22-.49-5.57-.09-2.35-.18-4.89-.27-7.62-.09-2.73-.15-5.42-.18-8.06-.03-2.64-.06-5.03-.09-7.17-.03-2.14-.04-3.71-.04-4.72v-22.9h6.95v62.37h-7.4l-53.11-53.28,.18-1.87c.06,.77,.13,1.96,.22,3.56s.19,3.42,.31,5.44c.12,2.02,.24,4.13,.36,6.33,.12,2.2,.21,4.31,.27,6.33,.06,2.02,.09,3.74,.09,5.17v28.33h-6.95Z"/>
          <path class="cls-1" d="M1179.02,143.36v-62.37h30.65c5.52,0,10.44,.82,14.75,2.45,4.31,1.63,7.98,3.88,11,6.73,3.03,2.85,5.32,6.15,6.86,9.89,1.54,3.74,2.32,7.78,2.32,12.12s-.77,8.41-2.32,12.21c-1.55,3.8-3.83,7.11-6.86,9.94-3.03,2.82-6.7,5.03-11,6.64-4.31,1.6-9.22,2.41-14.75,2.41h-30.65Zm6.95-5.52l-.8-1.25h24.06c4.57,0,8.6-.61,12.07-1.83,3.47-1.22,6.38-2.95,8.73-5.21,2.35-2.26,4.13-4.84,5.35-7.75,1.22-2.91,1.83-6.12,1.83-9.62s-.61-6.62-1.83-9.53c-1.22-2.91-3-5.49-5.35-7.75-2.35-2.26-5.26-4.01-8.73-5.26-3.47-1.25-7.5-1.87-12.07-1.87h-24.33l1.07-1.07v51.15Z"/>
          <path class="cls-1" d="M1433.58,143.36v-62.37h7.13l53.64,54.44-.62,1.6c-.24-1.37-.4-3.22-.49-5.57-.09-2.35-.18-4.89-.27-7.62-.09-2.73-.15-5.42-.18-8.06-.03-2.64-.06-5.03-.09-7.17-.03-2.14-.04-3.71-.04-4.72v-22.9h6.95v62.37h-7.4l-53.11-53.28,.18-1.87c.06,.77,.13,1.96,.22,3.56s.19,3.42,.31,5.44c.12,2.02,.24,4.13,.36,6.33,.12,2.2,.21,4.31,.27,6.33,.06,2.02,.09,3.74,.09,5.17v28.33h-6.95Z"/>
          <rect class="cls-1" x="1332.25" y="80.99" width="7.19" height="62.37"/>
          <path class="cls-1" d="M1610.28,144.25c-5.23,0-10.13-.73-14.7-2.18-4.58-1.46-8.61-3.53-12.12-6.24-3.51-2.7-6.24-6.04-8.2-10.02-1.96-3.98-2.94-8.49-2.94-13.54,0-4.51,.98-8.7,2.94-12.56,1.96-3.86,4.68-7.23,8.15-10.11,3.47-2.88,7.56-5.11,12.25-6.68,4.69-1.57,9.71-2.36,15.06-2.36,4.22,0,8.2,.46,11.94,1.38,3.74,.92,7.1,2.14,10.07,3.65,2.97,1.52,5.29,3.16,6.95,4.95l-4.37,5.26c-1.96-1.6-4.26-3.03-6.91-4.28-2.64-1.25-5.45-2.26-8.42-3.03-2.97-.77-6.03-1.16-9.18-1.16-4.4,0-8.46,.62-12.21,1.87s-7.03,2.98-9.85,5.21c-2.82,2.23-5.02,4.87-6.59,7.93-1.58,3.06-2.36,6.37-2.36,9.94,0,4.04,.8,7.63,2.41,10.78,1.6,3.15,3.85,5.79,6.73,7.93,2.88,2.14,6.19,3.74,9.94,4.81,3.74,1.07,7.75,1.6,12.03,1.6,3.86,0,7.53-.45,11-1.34,3.47-.89,6.5-2.15,9.09-3.79,2.58-1.63,4.62-3.49,6.1-5.57,1.48-2.08,2.17-4.25,2.05-6.5l-.09-2.41,1.6,2.49h-29.76v-6.77h35.46c.06,.59,.12,1.16,.18,1.69,.06,.53,.09,1.01,.09,1.43v1.07c0,3.92-.92,7.53-2.76,10.83-1.84,3.3-4.4,6.1-7.66,8.42-3.27,2.32-7.1,4.11-11.49,5.39-4.4,1.28-9.21,1.92-14.43,1.92Z"/>
        </g>
        <g>
          <path class="cls-1" d="M1690.56,92.81v-12.11h-5.24v-1.48h12.15v1.48h-5.4v12.11h-1.51Z"/>
          <path class="cls-1" d="M1702.92,92.81v-13.59h1.5l6.52,8.21h-.58l6.54-8.21h1.48v13.59h-1.51v-6.33c0-1.11,.02-2.14,.05-3.08,.03-.94,.11-1.89,.22-2.84l.21,.56-6.19,7.65h-1.05l-6.19-7.67,.25-.54c.12,.93,.19,1.87,.22,2.81s.05,1.98,.05,3.12v6.33h-1.51Z"/>
        </g>
      </g>
    </g>
  </g>
</svg>