<?xml version="1.0" encoding="UTF-8"?>
<svg id="Camada_2" data-name="Camada 2" xmlns="http://www.w3.org/2000/svg" viewBox="0 0 246.42 249.29">
  <defs>
    <style>
      .cls-1 {
        fill: #242a32;
      }
    </style>
  </defs>
  <g id="Camada_1-2" data-name="Camada 1">
    <g id="_1" data-name="1">
      <path class="cls-1" d="M0,228.57l20.71,20.72,2.18-2.22,53.41-53.41c1.02,.79,2.08,1.58,3.16,2.35,.73,.52,1.45,1.04,2.18,1.54,.69,.47,1.38,.94,2.08,1.4l.02,.02,.22,.14c.72,.47,1.44,.94,2.18,1.39,.07,.05,.23,.15,.4,.25,.64,.41,1.37,.85,2.1,1.28,.59,.36,1.21,.72,1.83,1.07,.42,.25,.89,.52,1.36,.77,.21,.13,.5,.28,.79,.44,.37,.21,.78,.43,1.2,.65,.69,.37,1.38,.73,2.08,1.09,.68,.35,1.38,.7,2.09,1.05l.73,.36c.65,.31,1.3,.62,1.96,.92l.37,.17c1.55,.71,3.13,1.4,4.84,2.1l.47,.19c.52,.21,1.04,.42,1.56,.62l.35,.38h.64c.62,.24,1.24,.47,1.86,.69,.5,.19,1.04,.38,1.58,.56,.37,.13,.74,.26,1.11,.38,1.73,.59,3.58,1.17,5.47,1.71,.35,.11,.75,.22,1.14,.33,.05,.02,.14,.04,.24,.07,.58,.16,1.17,.32,1.76,.47l.29,.08c.63,.16,1.26,.32,1.9,.48l.47,.11c.83,.19,1.59,.37,2.35,.53,.8,.17,1.61,.34,2.43,.51,.66,.13,1.31,.26,1.98,.38,.23,.04,.5,.09,.78,.14,.12,.03,.24,.05,.34,.06,.59,.11,1.19,.21,1.79,.3,.19,.04,.46,.08,.72,.12,.6,.09,1.2,.18,1.82,.27l.14,.02c.7,.09,1.39,.19,2.09,.27,.11,.02,.21,.03,.32,.04,.77,.09,1.58,.18,2.39,.26,.85,.08,1.69,.16,2.52,.22h.11c.54,.05,1.08,.09,1.61,.13,.11,0,.22,.02,.34,.02,.34,.03,.69,.05,1.03,.06,.04,0,.09,0,.13,0h.08s.04,0,.04,0l1.57,.07c.15,0,.28,0,.42,.01,.66,.02,1.29,.04,1.93,.06l.85,.02c.65,0,1.3,.01,1.95,.01h91.98S246.42,0,246.42,0H26.2s0,91.98,0,91.98c0,.83,0,1.65,.03,2.48,0,.13,0,.33,0,.52,.01,.7,.03,1.48,.07,2.25v.11c.03,.76,.07,1.53,.12,2.29,.02,.41,.05,.79,.07,1.16,.11,1.67,.26,3.32,.43,4.9,.06,.61,.14,1.23,.22,1.85,.02,.23,.05,.45,.08,.68,.07,.57,.15,1.23,.25,1.89,.15,1.06,.32,2.12,.49,3.17,.1,.63,.22,1.28,.34,1.93l.15,.83c.12,.62,.24,1.22,.36,1.83,.12,.58,.24,1.18,.38,1.78,.15,.66,.3,1.32,.45,1.99,.13,.58,.28,1.16,.43,1.74,.14,.56,.29,1.14,.45,1.73,.09,.33,.18,.69,.28,1.04,.16,.59,.32,1.16,.49,1.72,.02,.06,.04,.13,.06,.2,.12,.41,.24,.83,.37,1.24,.23,.78,.49,1.59,.75,2.4,.34,1.03,.69,2.06,1.05,3.07,.15,.44,.32,.9,.49,1.37,.16,.43,.32,.9,.51,1.36,.16,.43,.33,.88,.51,1.33,.52,1.34,1.1,2.73,1.7,4.11,.17,.4,.35,.82,.54,1.23,.23,.53,.49,1.11,.76,1.68,.27,.6,.57,1.24,.89,1.89l.2,.42c.24,.52,.52,1.06,.8,1.61l.45,.87c.05,.1,.09,.19,.14,.28,.28,.55,.56,1.09,.85,1.61,.78,1.47,1.63,2.98,2.5,4.46l.24,.4c.12,.21,.24,.41,.37,.61,.09,.15,.21,.36,.34,.57,.33,.54,.68,1.11,1.02,1.66,.36,.57,.72,1.13,1.08,1.68,.36,.56,.72,1.11,1.1,1.65,.43,.65,.89,1.31,1.36,1.98,.12,.17,.28,.4,.44,.63l.15,.21c.34,.49,.71,1,1.08,1.49,.15,.22,.34,.46,.52,.71,.31,.41,.62,.82,.93,1.23,.06,.08,.15,.2,.24,.32l.11,.14c.8,1.03,1.6,2.04,2.4,3.01L0,228.57ZM140.5,88.07l-68.77,68.77c-14.47-18.43-22.4-41.35-22.4-64.86v-3.91h91.17ZM205.44,23.13l-41.8,41.8H49.33V23.13H205.44Zm17.85,23.55V197.09h-41.8V88.48s41.8-41.8,41.8-41.8Zm-64.94,64.94v85.48h-3.91c-22.03,0-43.8-7.07-61.61-19.96l65.52-65.51Z"/>
    </g>
  </g>
</svg>