<?xml version="1.0" encoding="utf-8"?>
<!-- Generator: Adobe Illustrator 28.3.0, SVG Export Plug-In . SVG Version: 6.00 Build 0)  -->
<svg version="1.1" id="Camada_2_00000111172980805553020490000002108466391809814147_"
	 xmlns="http://www.w3.org/2000/svg" xmlns:xlink="http://www.w3.org/1999/xlink" x="0px" y="0px" viewBox="0 0 1718.4 249.3"
	 style="enable-background:new 0 0 1718.4 249.3;" xml:space="preserve">
<style type="text/css">
	.st0{fill:#FFFFFF;}
</style>
<g id="Camada_1-2">
	<g id="_1">
		<path class="st0" d="M0,228.6l20.7,20.7l2.2-2.2l53.4-53.4c1,0.8,2.1,1.6,3.2,2.4c0.7,0.5,1.4,1,2.2,1.5c0.7,0.5,1.4,0.9,2.1,1.4
			l0,0l0.2,0.1c0.7,0.5,1.4,0.9,2.2,1.4c0.1,0.1,0.2,0.1,0.4,0.2c0.6,0.4,1.4,0.9,2.1,1.3c0.6,0.4,1.2,0.7,1.8,1.1
			c0.4,0.2,0.9,0.5,1.4,0.8c0.2,0.1,0.5,0.3,0.8,0.4c0.4,0.2,0.8,0.4,1.2,0.6c0.7,0.4,1.4,0.7,2.1,1.1c0.7,0.4,1.4,0.7,2.1,1.1
			l0.7,0.4c0.7,0.3,1.3,0.6,2,0.9l0.4,0.2c1.6,0.7,3.1,1.4,4.8,2.1l0.5,0.2c0.5,0.2,1,0.4,1.6,0.6l0.3,0.4h0.6
			c0.6,0.2,1.2,0.5,1.9,0.7c0.5,0.2,1,0.4,1.6,0.6c0.4,0.1,0.7,0.3,1.1,0.4c1.7,0.6,3.6,1.2,5.5,1.7c0.3,0.1,0.8,0.2,1.1,0.3
			c0.1,0,0.1,0,0.2,0.1c0.6,0.2,1.2,0.3,1.8,0.5l0.3,0.1c0.6,0.2,1.3,0.3,1.9,0.5l0.5,0.1c0.8,0.2,1.6,0.4,2.3,0.5
			c0.8,0.2,1.6,0.3,2.4,0.5c0.7,0.1,1.3,0.3,2,0.4c0.2,0,0.5,0.1,0.8,0.1c0.1,0,0.2,0.1,0.3,0.1c0.6,0.1,1.2,0.2,1.8,0.3
			c0.2,0,0.5,0.1,0.7,0.1c0.6,0.1,1.2,0.2,1.8,0.3l0.1,0c0.7,0.1,1.4,0.2,2.1,0.3c0.1,0,0.2,0,0.3,0c0.8,0.1,1.6,0.2,2.4,0.3
			c0.9,0.1,1.7,0.2,2.5,0.2h0.1c0.5,0.1,1.1,0.1,1.6,0.1c0.1,0,0.2,0,0.3,0c0.3,0,0.7,0.1,1,0.1c0,0,0.1,0,0.1,0h0.1h0l1.6,0.1
			c0.1,0,0.3,0,0.4,0c0.7,0,1.3,0,1.9,0.1l0.9,0c0.6,0,1.3,0,1.9,0h92l0-220.2H26.2v92c0,0.8,0,1.7,0,2.5c0,0.1,0,0.3,0,0.5
			c0,0.7,0,1.5,0.1,2.2v0.1c0,0.8,0.1,1.5,0.1,2.3c0,0.4,0,0.8,0.1,1.2c0.1,1.7,0.3,3.3,0.4,4.9c0.1,0.6,0.1,1.2,0.2,1.8
			c0,0.2,0,0.4,0.1,0.7c0.1,0.6,0.1,1.2,0.2,1.9c0.1,1.1,0.3,2.1,0.5,3.2c0.1,0.6,0.2,1.3,0.3,1.9l0.1,0.8c0.1,0.6,0.2,1.2,0.4,1.8
			c0.1,0.6,0.2,1.2,0.4,1.8c0.1,0.7,0.3,1.3,0.5,2c0.1,0.6,0.3,1.2,0.4,1.7c0.1,0.6,0.3,1.1,0.5,1.7c0.1,0.3,0.2,0.7,0.3,1
			c0.2,0.6,0.3,1.2,0.5,1.7c0,0.1,0,0.1,0.1,0.2c0.1,0.4,0.2,0.8,0.4,1.2c0.2,0.8,0.5,1.6,0.7,2.4c0.3,1,0.7,2.1,1,3.1
			c0.2,0.4,0.3,0.9,0.5,1.4c0.2,0.4,0.3,0.9,0.5,1.4c0.2,0.4,0.3,0.9,0.5,1.3c0.5,1.3,1.1,2.7,1.7,4.1c0.2,0.4,0.3,0.8,0.5,1.2
			c0.2,0.5,0.5,1.1,0.8,1.7c0.3,0.6,0.6,1.2,0.9,1.9l0.2,0.4c0.2,0.5,0.5,1.1,0.8,1.6l0.5,0.9c0,0.1,0.1,0.2,0.1,0.3
			c0.3,0.6,0.6,1.1,0.8,1.6c0.8,1.5,1.6,3,2.5,4.5l0.2,0.4c0.1,0.2,0.2,0.4,0.4,0.6c0.1,0.1,0.2,0.4,0.3,0.6c0.3,0.5,0.7,1.1,1,1.7
			c0.4,0.6,0.7,1.1,1.1,1.7c0.4,0.6,0.7,1.1,1.1,1.6c0.4,0.6,0.9,1.3,1.4,2c0.1,0.2,0.3,0.4,0.4,0.6l0.2,0.2c0.3,0.5,0.7,1,1.1,1.5
			c0.2,0.2,0.3,0.5,0.5,0.7c0.3,0.4,0.6,0.8,0.9,1.2c0.1,0.1,0.2,0.2,0.2,0.3l0.1,0.1c0.8,1,1.6,2,2.4,3L0,228.6z M140.5,88.1
			l-68.8,68.8C57.3,138.4,49.3,115.5,49.3,92v-3.9C49.3,88.1,140.5,88.1,140.5,88.1z M205.4,23.1l-41.8,41.8H49.3V23.1H205.4z
			 M223.3,46.7v150.4h-41.8V88.5C181.5,88.5,223.3,46.7,223.3,46.7z M158.4,111.6v85.5h-3.9c-22,0-43.8-7.1-61.6-20L158.4,111.6
			L158.4,111.6z"/>
		<g>
			<g>
				<path class="st0" d="M357.8,141.8V79.4h57.8v14.5h-40.9v33.3h42.2v14.5L357.8,141.8L357.8,141.8z M367,117v-13.7h45V117H367z"/>
				<path class="st0" d="M524.2,142.6c-5.6,0-10.8-0.8-15.6-2.3s-9-3.7-12.6-6.6c-3.6-2.9-6.5-6.3-8.5-10.2c-2-4-3-8.4-3-13.3
					s1-9.2,3.1-13.2c2-4,4.9-7.4,8.4-10.2c3.6-2.8,7.7-5.1,12.5-6.6c4.8-1.6,9.9-2.4,15.5-2.4c4,0,7.8,0.4,11.4,1.2
					c3.6,0.8,7,1.9,10.2,3.3c3.2,1.4,5.8,3,8.1,4.8l-9.9,13.7c-1.4-1.2-3.1-2.3-5.1-3.4s-4.2-2-6.8-2.7c-2.5-0.7-5.5-1-8.9-1
					c-2.5,0-4.9,0.3-7.3,1s-4.6,1.7-6.5,3.1s-3.6,3.1-4.7,5.2s-1.7,4.5-1.7,7.3s0.6,5.2,1.9,7.3c1.2,2.1,3,3.8,5.1,5.2
					c2.2,1.4,4.6,2.4,7.3,3.1s5.4,1,8.3,1c3.4,0,6.4-0.5,8.9-1.4s4.8-2,6.7-3.2c1.9-1.2,3.6-2.4,5.1-3.4l8.2,13.5
					c-1.8,1.4-4.2,2.9-7.3,4.5c-3.1,1.6-6.5,3-10.4,4.1C532.6,142.1,528.5,142.6,524.2,142.6L524.2,142.6z"/>
				<path class="st0" d="M658.7,142.6c-5.9,0-11.4-0.8-16.3-2.4c-4.9-1.6-9.2-3.9-12.7-6.9s-6.3-6.4-8.3-10.3
					c-2-3.9-2.9-8.2-2.9-12.8s1-8.9,3-12.8c2-3.9,4.8-7.3,8.3-10.3s7.8-5.2,12.7-6.9s10.3-2.4,16.3-2.4s11.3,0.8,16.2,2.4
					c4.9,1.6,9.2,3.9,12.7,6.9c3.6,2.9,6.4,6.4,8.3,10.3s2.9,8.2,2.9,12.7s-1,8.9-2.9,12.9s-4.7,7.4-8.3,10.3s-7.8,5.2-12.7,6.9
					C669.9,141.8,664.5,142.6,658.7,142.6L658.7,142.6z M658.7,126.2c3.2,0,6.2-0.4,8.9-1.2c2.7-0.8,5.1-1.9,7.1-3.4
					s3.5-3.2,4.6-5.1s1.6-4.1,1.6-6.3s-0.5-4.4-1.6-6.3s-2.6-3.7-4.6-5.1c-2-1.5-4.3-2.6-7.1-3.4c-2.7-0.8-5.7-1.2-8.9-1.2
					s-6.3,0.4-9,1.2c-2.7,0.8-5.1,1.9-7.1,3.4s-3.5,3.2-4.6,5.1s-1.6,4.1-1.6,6.3s0.5,4.4,1.6,6.3c1.1,2,2.6,3.7,4.6,5.1
					c2,1.5,4.3,2.6,7.1,3.4C652.4,125.8,655.4,126.2,658.7,126.2z"/>
			</g>
			<g>
				<path class="st0" d="M773.3,143.4V81h7v62.4H773.3z M776,116.4v-6.9h43v6.9H776z M777,87.8V81h46.2v6.8H777z"/>
				<path class="st0" d="M926.9,144c-6.2,0-11.5-1.3-16.1-4s-8.1-6.2-10.7-10.8c-2.5-4.6-3.8-9.8-3.8-15.7V81h7v32.3
					c0,4.6,1,8.7,3.1,12.3c2,3.6,4.9,6.4,8.5,8.5c3.6,2,7.7,3,12.2,3c4.8,0,8.9-1,12.6-3s6.5-4.8,8.5-8.5s3.1-7.7,3.1-12.3V81h6.7
					v32.6c0,5.8-1.3,11-3.8,15.6c-2.5,4.6-6.1,8.2-10.7,10.8C938.6,142.7,933.2,144,926.9,144L926.9,144z"/>
				<path class="st0" d="M1035.1,143.4V81h7.1l53.6,54.4l-0.6,1.6c-0.2-1.4-0.4-3.2-0.5-5.6s-0.2-4.9-0.3-7.6s-0.2-5.4-0.2-8.1
					s-0.1-5-0.1-7.2c0-2.1,0-3.7,0-4.7V81h6.9v62.4h-7.4l-53.1-53.3l0.2-1.9c0.1,0.8,0.1,2,0.2,3.6s0.2,3.4,0.3,5.4
					c0.1,2,0.2,4.1,0.4,6.3c0.1,2.2,0.2,4.3,0.3,6.3c0.1,2,0.1,3.7,0.1,5.2v28.3L1035.1,143.4L1035.1,143.4z"/>
				<path class="st0" d="M1179,143.4V81h30.7c5.5,0,10.4,0.8,14.8,2.4s8,3.9,11,6.7c3,2.8,5.3,6.2,6.9,9.9s2.3,7.8,2.3,12.1
					s-0.8,8.4-2.3,12.2c-1.6,3.8-3.8,7.1-6.9,9.9c-3,2.8-6.7,5-11,6.6c-4.3,1.6-9.2,2.4-14.8,2.4L1179,143.4L1179,143.4z
					 M1186,137.8l-0.8-1.2h24.1c4.6,0,8.6-0.6,12.1-1.8s6.4-2.9,8.7-5.2c2.3-2.3,4.1-4.8,5.3-7.8s1.8-6.1,1.8-9.6s-0.6-6.6-1.8-9.5
					c-1.2-2.9-3-5.5-5.3-7.8s-5.3-4-8.7-5.3s-7.5-1.9-12.1-1.9h-24.3l1.1-1.1V137.8L1186,137.8z"/>
				<path class="st0" d="M1433.6,143.4V81h7.1l53.6,54.4l-0.6,1.6c-0.2-1.4-0.4-3.2-0.5-5.6s-0.2-4.9-0.3-7.6s-0.2-5.4-0.2-8.1
					s-0.1-5-0.1-7.2c0-2.1,0-3.7,0-4.7V81h6.9v62.4h-7.4l-53.1-53.3l0.2-1.9c0.1,0.8,0.1,2,0.2,3.6s0.2,3.4,0.3,5.4
					c0.1,2,0.2,4.1,0.4,6.3c0.1,2.2,0.2,4.3,0.3,6.3c0.1,2,0.1,3.7,0.1,5.2v28.3L1433.6,143.4L1433.6,143.4z"/>
				<rect x="1332.2" y="81" class="st0" width="7.2" height="62.4"/>
				<path class="st0" d="M1610.3,144.2c-5.2,0-10.1-0.7-14.7-2.2c-4.6-1.5-8.6-3.5-12.1-6.2c-3.5-2.7-6.2-6-8.2-10
					c-2-4-2.9-8.5-2.9-13.5c0-4.5,1-8.7,2.9-12.6s4.7-7.2,8.2-10.1s7.6-5.1,12.2-6.7s9.7-2.4,15.1-2.4c4.2,0,8.2,0.5,11.9,1.4
					s7.1,2.1,10.1,3.7c3,1.5,5.3,3.2,6.9,4.9l-4.4,5.3c-2-1.6-4.3-3-6.9-4.3c-2.6-1.2-5.4-2.3-8.4-3c-3-0.8-6-1.2-9.2-1.2
					c-4.4,0-8.5,0.6-12.2,1.9s-7,3-9.8,5.2c-2.8,2.2-5,4.9-6.6,7.9c-1.6,3.1-2.4,6.4-2.4,9.9c0,4,0.8,7.6,2.4,10.8
					c1.6,3.2,3.8,5.8,6.7,7.9s6.2,3.7,9.9,4.8c3.7,1.1,7.8,1.6,12,1.6c3.9,0,7.5-0.4,11-1.3s6.5-2.1,9.1-3.8
					c2.6-1.6,4.6-3.5,6.1-5.6c1.5-2.1,2.2-4.2,2.1-6.5l-0.1-2.4l1.6,2.5h-29.8v-6.8h35.5c0.1,0.6,0.1,1.2,0.2,1.7s0.1,1,0.1,1.4v1.1
					c0,3.9-0.9,7.5-2.8,10.8c-1.8,3.3-4.4,6.1-7.7,8.4c-3.3,2.3-7.1,4.1-11.5,5.4C1620.3,143.6,1615.5,144.3,1610.3,144.2
					L1610.3,144.2z"/>
			</g>
			<g>
				<path class="st0" d="M1690.6,92.8V80.7h-5.2v-1.5h12.2v1.5h-5.4v12.1H1690.6z"/>
				<path class="st0" d="M1702.9,92.8V79.2h1.5l6.5,8.2h-0.6l6.5-8.2h1.5v13.6h-1.5v-6.3c0-1.1,0-2.1,0.1-3.1s0.1-1.9,0.2-2.8
					l0.2,0.6l-6.2,7.7h-1.1l-6.2-7.7l0.2-0.5c0.1,0.9,0.2,1.9,0.2,2.8s0.1,2,0.1,3.1v6.3L1702.9,92.8L1702.9,92.8z"/>
			</g>
		</g>
	</g>
</g>
</svg>
