<?xml version="1.0" encoding="UTF-8"?>
<svg id="Camada_2" data-name="Camada 2" xmlns="http://www.w3.org/2000/svg" xmlns:xlink="http://www.w3.org/1999/xlink" viewBox="0 0 1920 1080">
  <defs>
    <style>
      .cls-1 {
        fill: none;
      }

      .cls-1, .cls-2, .cls-3 {
        stroke-width: 0px;
      }

      .cls-2 {
        fill: url(#Novo_padrão_3);
        opacity: .02;
      }

      .cls-3 {
        fill: #f4f3f5;
      }
    </style>
    <pattern id="Novo_padrão_3" data-name="Novo padrão 3" x="0" y="0" width="111.31" height="113.36" patternUnits="userSpaceOnUse" viewBox="0 0 111.31 113.36">
      <g>
        <rect class="cls-1" x="0" y="0" width="111.31" height="113.36"/>
        <path class="cls-3" d="M111.29,3.85C111.31.97,110.5,0,107.52,0,76.43.1,45.34.1,14.25,0c-3.04,0-4.09.8-4.04,3.95.17,12.3.13,24.6.07,36.9-.06,13.35,3.59,25.51,11.58,36.25,1.35,1.82,1.14,2.88-.39,4.36-5.43,5.29-10.74,10.7-16.1,16.07-7.18,7.18-7.11,7.11-.06,14.26,1.89,1.92,2.97,2.19,4.99.09,6.63-6.9,13.57-13.5,20.21-20.4,2.07-2.15,3.54-2.18,5.94-.53,9.92,6.81,21,9.99,33.04,9.95,12.44-.04,24.87-.15,37.3.07,3.71.06,4.55-1.19,4.51-4.69-.18-15.28-.08-30.57-.08-45.85,0-15.53-.06-31.06.06-46.6ZM74.48,28.38c-1.08,1.09-2.39,1.17-3.78,1.17-15.4,0-30.8-.03-46.2.04-2.47.01-3.66-.68-3.56-3.37.15-4.21.08-8.44.02-12.66-.03-1.97.59-2.94,2.76-2.94,22.23.06,44.46.06,66.69.1.21,0,.41.2,1.09.56-5.83,5.85-11.44,11.45-17.02,17.08ZM100.43,86.7c.03,2.75-.85,3.78-3.64,3.65-3.97-.19-7.96-.17-11.93-.02-2.66.1-3.41-.99-3.4-3.51.08-14.66.05-29.32.01-43.98,0-1.61.51-2.83,1.66-3.96,4.87-4.79,9.68-9.65,14.54-14.46.57-.57,1.1-1.63,2.09-1.19.96.42.6,1.53.6,2.34.03,10.31.02,20.62.02,30.93,0,10.06-.08,20.13.05,30.19ZM53.51,49.44c-6.72,6.6-13.41,13.25-19.95,20.02-1.95,2.02-2.95,1.81-4.4-.43-4.96-7.67-7.84-15.98-8.13-25.14-.06-1.83-.06-3.51,2.56-3.5,12.51.04,25.02.02,37.53.02.3.47.6.94.9,1.41-2.84,2.53-5.8,4.95-8.51,7.62ZM70.91,87.78c0,1.69-.66,2.54-2.41,2.48-9.11-.32-17.59-2.7-25.3-7.65-1.16-.75-2.02-1.62-.71-2.93,9.2-9.15,18.42-18.3,28.4-28.21,0,12.84-.01,24.58.01,36.32Z"/>
      </g>
    </pattern>
  </defs>
  <g id="Camada_1-2" data-name="Camada 1">
    <rect class="cls-2" width="1920" height="1080"/>
  </g>
</svg>